<?xml version="1.0" standalone="no"?>
<!DOCTYPE svg PUBLIC "-//W3C//DTD SVG 20010904//EN"
 "http://www.w3.org/TR/2001/REC-SVG-20010904/DTD/svg10.dtd">
<svg version="1.0" xmlns="http://www.w3.org/2000/svg"
 width="2000.000000pt" height="2000.000000pt" viewBox="0 0 2000.000000 2000.000000"
 preserveAspectRatio="xMidYMid meet">
<metadata>
Created by potrace 1.14, written by Peter Selinger 2001-2017
</metadata>
<g transform="translate(0.000000,2000.000000) scale(0.100000,-0.100000)"
fill="#000000" stroke="none">
<path d="M8459 16226 c-2 -2 -71 -7 -154 -11 -153 -7 -192 -9 -350 -19 -118
-8 -199 -15 -255 -21 -25 -3 -79 -7 -120 -10 -41 -3 -86 -8 -100 -10 -14 -2
-52 -6 -85 -9 -33 -4 -76 -8 -95 -11 -19 -2 -51 -6 -70 -9 -19 -2 -62 -8 -95
-12 -33 -3 -67 -8 -75 -9 -8 -2 -40 -6 -70 -10 -30 -4 -64 -9 -75 -11 -10 -2
-37 -6 -60 -9 -22 -3 -80 -13 -130 -21 -49 -8 -103 -17 -120 -20 -30 -5 -191
-34 -210 -39 -5 -1 -31 -5 -56 -9 -25 -4 -51 -11 -57 -15 -11 -7 -18 -45 -27
-166 -3 -38 -8 -97 -12 -130 -3 -33 -6 -70 -7 -83 -1 -16 30 -54 109 -135 154
-156 184 -195 341 -437 133 -205 271 -538 299 -721 23 -153 25 -225 11 -344
-4 -27 -9 -72 -12 -99 -3 -27 -8 -58 -10 -70 -3 -12 -7 -45 -9 -75 -2 -30 -7
-68 -11 -84 -3 -16 -7 -38 -8 -50 -8 -67 -19 -145 -36 -252 -11 -66 -22 -140
-25 -165 -3 -25 -8 -52 -10 -60 -2 -8 -6 -33 -9 -55 -4 -22 -8 -51 -11 -65 -3
-14 -7 -41 -9 -60 -3 -19 -16 -100 -29 -180 -14 -80 -28 -163 -31 -185 -4 -22
-8 -47 -11 -55 -2 -8 -7 -31 -9 -50 -3 -19 -19 -114 -36 -210 -34 -191 -33
-181 -31 -195 1 -7 559 -10 1653 -10 l1653 0 27 135 c16 74 30 146 33 160 2
14 21 104 41 200 20 96 37 182 39 190 5 26 47 244 52 269 2 14 15 79 28 145
13 67 33 173 45 236 11 63 25 135 31 160 5 25 11 59 14 75 2 17 19 118 38 225
20 107 38 218 41 245 4 28 13 88 21 135 7 47 17 110 20 140 4 30 9 62 10 71 3
16 18 182 18 207 0 7 15 12 36 13 20 0 59 3 86 5 131 13 377 8 585 -11 73 -7
170 -14 255 -20 44 -3 103 -8 130 -10 28 -3 82 -7 120 -10 39 -3 93 -7 120
-10 28 -2 91 -7 140 -10 50 -3 110 -8 135 -10 25 -3 79 -7 120 -10 41 -3 95
-8 120 -10 25 -2 83 -7 130 -10 113 -8 222 -17 375 -30 28 -3 91 -7 140 -10
50 -3 106 -8 125 -10 19 -2 73 -7 120 -10 47 -4 105 -8 130 -10 224 -20 314
-23 461 -12 296 21 522 103 654 234 132 132 210 305 239 532 15 120 10 532 -8
676 -2 17 -7 62 -11 100 -15 162 -18 173 -53 169 -251 -27 -1343 -39 -1947
-21 -154 5 -345 10 -425 12 -284 7 -597 15 -750 20 -85 2 -270 7 -410 11 -140
3 -316 7 -390 9 -74 2 -252 7 -395 10 -143 4 -321 9 -395 11 -176 7 -1436 15
-1441 10z"/>
<path d="M174 11508 c-53 -11 -117 -66 -140 -120 -16 -41 -18 -119 -19 -1388
-1 -1292 0 -1347 18 -1390 23 -55 50 -86 102 -113 39 -21 50 -21 595 -22 361
-1 567 2 590 9 53 16 124 92 137 146 7 30 10 484 9 1385 -2 1464 2 1373 -58
1437 -61 64 -38 62 -643 63 -302 0 -568 -3 -591 -7z m701 -206 c3 -8 4 -17 2
-19 -3 -3 -177 -6 -244 -4 -23 1 -32 26 -12 33 6 2 65 4 130 4 95 0 119 -3
124 -14z m498 -213 c19 -25 17 -2123 -1 -2141 -20 -20 -1238 -20 -1258 0 -12
11 -14 180 -14 1070 0 581 4 1062 8 1068 4 6 14 13 22 16 8 2 288 4 623 4 549
-1 610 -3 620 -17z m-566 -2272 c66 -35 80 -133 26 -189 -50 -53 -124 -55
-173 -6 -67 67 -50 166 35 204 35 16 69 13 112 -9z"/>
<path d="M12824 11083 c-256 -40 -474 -203 -523 -390 -13 -48 -15 -139 -6
-198 23 -136 129 -345 316 -622 87 -129 182 -301 214 -388 49 -136 42 -257
-18 -313 -24 -22 -98 -46 -108 -34 -4 4 -17 42 -28 84 -50 179 -124 317 -195
364 -44 28 -92 17 -186 -47 -99 -66 -258 -254 -276 -326 -24 -92 178 -252 371
-294 423 -93 885 101 1000 421 25 69 27 201 4 290 -40 158 -127 348 -223 488
-31 45 -56 83 -56 86 0 2 23 21 52 42 113 84 189 161 260 265 55 81 69 124 69
218 1 110 -51 196 -162 270 -124 83 -313 114 -505 84z m356 -252 c79 -39 90
-141 26 -237 -35 -53 -114 -127 -188 -177 l-41 -27 -34 47 c-19 27 -51 82 -71
122 -30 60 -37 86 -37 132 0 50 4 62 30 90 36 38 83 59 150 68 67 9 123 3 165
-18z"/>
<path d="M2385 11069 c-44 -5 -114 -15 -155 -21 -74 -13 -75 -13 -78 -46 -3
-25 5 -42 32 -75 19 -23 47 -67 63 -97 24 -48 28 -66 27 -135 0 -44 -3 -93 -6
-110 -4 -16 -14 -75 -23 -130 -9 -55 -20 -118 -25 -140 -5 -22 -11 -56 -14
-75 -6 -34 -15 -84 -20 -105 -4 -13 -16 -76 -20 -95 -1 -8 -8 -40 -14 -70 -6
-30 -14 -66 -16 -80 -3 -14 -25 -127 -50 -251 -25 -124 -48 -242 -51 -263 -9
-74 -16 -121 -20 -146 -5 -27 -14 -94 -20 -150 -2 -19 -5 -64 -6 -100 l-2 -65
99 0 c178 0 377 26 465 62 l37 14 2 87 c2 113 14 255 26 317 2 11 7 44 10 74
3 30 7 58 9 61 3 4 7 25 10 46 2 21 7 50 10 64 3 14 8 41 11 60 4 19 8 44 11
55 2 11 7 39 12 63 5 24 12 46 15 49 10 11 57 13 251 15 169 2 227 -2 300 -17
26 -6 32 -3 42 22 28 63 42 116 49 172 l6 59 -53 10 c-30 6 -161 9 -296 7
-134 -2 -243 -1 -243 2 0 2 24 127 54 276 30 150 57 297 61 327 4 30 9 58 11
61 4 7 92 4 194 -5 308 -28 423 -28 469 -1 59 35 71 81 62 245 l-1 25 -228 1
c-125 1 -382 4 -572 6 -190 3 -381 1 -425 -3z"/>
<path d="M19557 10724 c-1 -2 -29 -6 -62 -9 -33 -4 -63 -9 -66 -11 -4 -2 -23
-6 -42 -9 -47 -8 -207 -52 -215 -59 -3 -4 -5 -87 -4 -185 1 -99 0 -186 -3
-194 -5 -10 -32 -13 -125 -12 l-119 1 -6 -33 c-8 -42 -4 -188 5 -202 5 -8 35
-9 106 -2 54 5 102 7 105 5 4 -2 2 -21 -3 -41 -5 -21 -27 -112 -49 -203 -22
-91 -42 -172 -44 -180 -1 -8 -8 -35 -15 -60 -29 -106 -58 -286 -58 -352 0 -95
21 -152 74 -203 73 -71 189 -94 339 -68 119 20 250 73 345 139 84 58 82 51 43
129 -20 39 -36 71 -38 73 -1 1 -24 -7 -50 -18 -77 -33 -122 -40 -137 -23 -19
23 -11 161 17 293 35 168 106 497 111 513 5 16 15 17 87 12 45 -3 103 -8 130
-11 l47 -5 20 47 c11 26 23 79 27 118 l6 72 -124 -1 c-68 -1 -130 1 -137 3 -8
3 -11 14 -7 31 23 108 33 214 30 321 -4 136 -1 132 -102 128 -46 -1 -85 -3
-86 -4z"/>
<path d="M4035 10267 c-179 -46 -340 -207 -429 -430 -110 -276 -105 -629 11
-791 60 -84 109 -117 208 -141 126 -30 298 17 461 127 26 17 49 27 51 21 2 -6
17 -31 32 -55 65 -102 213 -129 391 -73 145 47 346 153 337 179 -2 6 -14 41
-26 77 l-22 67 -79 -21 c-64 -17 -82 -19 -92 -9 -17 17 -18 152 -3 267 7 50
16 113 19 140 4 28 9 57 11 65 2 8 7 31 10 50 13 81 28 153 62 284 30 115 34
140 22 147 -24 15 -200 68 -275 82 -39 7 -99 15 -133 16 l-61 2 -15 -35 c-17
-40 -24 -42 -63 -22 -107 55 -308 81 -417 53z m379 -256 c11 -10 10 -24 -5
-84 -21 -78 -64 -304 -73 -377 -9 -76 -16 -152 -21 -218 -3 -35 -7 -67 -10
-72 -11 -18 -69 -40 -105 -40 -49 0 -79 25 -90 75 -10 41 -6 306 4 360 44 218
89 324 155 361 29 16 123 13 145 -5z"/>
<path d="M6125 10268 c-50 -18 -129 -73 -191 -132 -46 -44 -60 -52 -62 -39 -6
41 -26 110 -38 134 -12 24 -16 25 -86 23 -152 -6 -304 -14 -323 -18 -11 -2
-42 -7 -70 -10 -151 -22 -167 -39 -106 -115 53 -68 75 -137 67 -210 -5 -47
-37 -226 -61 -346 -66 -325 -95 -560 -78 -625 5 -18 13 -19 152 -15 186 6 276
15 367 37 l41 10 1 106 c1 59 4 116 6 127 2 11 7 47 11 80 3 33 10 78 15 100
14 65 82 429 83 444 1 20 78 72 101 69 12 -2 38 -29 62 -63 40 -59 42 -60 85
-58 69 3 175 62 246 136 60 62 61 65 57 110 -11 118 -67 227 -130 253 -39 16
-106 17 -149 2z"/>
<path d="M7472 10269 c-86 -16 -213 -69 -334 -137 l-36 -21 -22 70 c-14 49
-26 69 -38 70 -27 2 -248 -2 -290 -6 -147 -12 -205 -20 -262 -34 -79 -19 -83
-33 -28 -106 80 -105 83 -174 23 -435 -3 -14 -8 -36 -11 -50 -4 -22 -17 -80
-29 -130 -42 -182 -78 -400 -86 -530 l-3 -45 134 1 c249 3 429 33 431 72 1 9
2 35 4 57 3 48 15 152 20 180 3 11 7 36 9 55 3 19 15 82 27 140 11 58 23 116
25 130 4 20 39 174 69 305 5 26 100 75 144 75 53 0 59 -30 34 -163 -12 -62
-24 -122 -27 -134 -3 -13 -8 -31 -10 -40 -66 -291 -69 -312 -70 -418 -1 -96 2
-116 23 -158 80 -161 325 -162 645 -1 41 20 86 46 100 58 l27 21 -24 70 c-13
39 -30 71 -38 73 -8 1 -45 -6 -84 -17 -38 -11 -73 -16 -78 -12 -12 12 -14 79
-5 140 5 31 28 139 53 241 74 313 86 408 60 495 -25 82 -87 152 -160 179 -31
11 -145 14 -193 5z"/>
<path d="M8531 10264 c-125 -33 -246 -123 -323 -242 -122 -187 -172 -351 -177
-583 -4 -208 32 -339 122 -436 82 -89 197 -122 347 -99 67 10 231 84 299 135
32 24 34 25 47 6 8 -10 14 -24 14 -30 0 -21 61 -76 106 -96 48 -22 136 -29
211 -17 94 16 270 90 379 160 43 28 50 36 43 53 -5 11 -18 45 -29 76 l-20 56
-80 -21 c-60 -15 -83 -17 -92 -8 -18 18 -15 196 6 322 3 14 7 43 11 65 20 144
66 362 98 473 l24 83 -26 13 c-81 42 -315 96 -414 96 -45 0 -49 -2 -63 -35 -8
-19 -18 -35 -23 -35 -5 0 -34 11 -66 25 -118 53 -280 69 -394 39z m361 -244
c38 -11 41 -22 21 -85 -26 -80 -74 -360 -89 -520 -4 -44 -7 -94 -7 -112 1 -39
-21 -60 -80 -78 -63 -19 -106 3 -123 61 -13 44 -12 276 1 349 18 107 46 218
64 257 58 124 111 156 213 128z"/>
<path d="M10775 10274 c-143 -40 -255 -88 -337 -146 -30 -21 -48 -17 -48 11 0
37 -32 111 -48 112 -26 2 -263 -2 -302 -6 -45 -3 -172 -17 -185 -19 -104 -21
-123 -28 -128 -48 -4 -15 3 -32 25 -57 41 -46 78 -128 78 -171 0 -19 -21 -134
-46 -255 -47 -226 -92 -463 -99 -525 -8 -65 -18 -185 -19 -220 l-1 -35 120 1
c66 0 158 4 204 7 88 8 218 34 225 45 2 4 7 43 10 87 6 71 27 217 41 285 3 14
9 48 15 75 15 79 100 469 103 471 16 13 80 39 110 44 32 6 40 4 52 -14 13 -20
13 -67 0 -126 -3 -14 -8 -38 -11 -55 -3 -16 -21 -106 -40 -200 -38 -188 -41
-203 -58 -325 -10 -72 -12 -152 -7 -269 l1 -24 173 7 c94 3 186 8 202 11 107
18 153 27 162 33 6 4 13 61 17 127 3 66 8 129 10 140 2 11 7 52 11 90 3 39 10
88 15 110 5 22 11 56 14 75 15 91 73 357 81 370 10 16 59 39 104 49 72 16 89
-19 65 -133 -7 -33 -15 -81 -19 -106 -4 -24 -8 -47 -11 -51 -4 -7 -62 -274
-70 -324 -13 -82 -16 -206 -5 -252 42 -173 241 -215 524 -112 81 29 219 99
249 126 15 13 15 19 -6 79 -13 36 -27 69 -33 75 -7 7 -34 3 -81 -10 -63 -17
-74 -18 -86 -5 -21 20 -14 112 19 254 95 407 99 431 98 533 -1 55 -6 79 -30
125 -104 199 -371 199 -666 0 l-58 -39 -14 35 c-39 92 -125 147 -240 151 -38
1 -74 1 -80 -1z"/>
<path d="M14681 10259 c-77 -20 -214 -81 -277 -124 -43 -29 -54 -31 -54 -8 0
37 -34 123 -49 124 -30 3 -226 -1 -299 -6 -95 -6 -151 -13 -237 -31 -38 -8
-72 -14 -75 -14 -3 0 -7 -12 -8 -26 -1 -18 8 -37 29 -58 38 -39 72 -110 74
-158 3 -42 1 -51 -50 -298 -21 -96 -39 -184 -41 -195 -2 -11 -6 -31 -9 -45
-26 -123 -52 -306 -61 -427 l-6 -82 139 4 c181 5 264 13 349 33 l69 17 1 40
c2 43 12 145 19 185 3 14 7 41 10 60 5 32 31 168 41 215 12 57 34 160 54 245
12 52 23 102 25 110 2 8 4 25 4 36 1 27 32 48 100 68 49 14 53 14 71 -4 12
-12 17 -28 15 -44 -3 -15 -9 -52 -15 -84 -5 -31 -12 -75 -16 -97 -3 -22 -8
-43 -10 -46 -2 -3 -6 -20 -9 -37 -3 -18 -7 -46 -10 -64 -3 -17 -7 -34 -9 -37
-2 -3 -7 -22 -10 -41 -7 -43 -15 -87 -21 -120 -3 -14 -8 -42 -11 -64 -3 -21
-8 -48 -11 -60 -8 -35 -14 -273 -7 -291 7 -16 21 -17 173 -11 91 3 182 8 201
11 73 10 106 16 141 25 34 10 35 11 35 57 1 59 15 266 19 273 2 3 6 30 10 60
8 76 15 122 21 142 6 21 12 52 19 101 4 22 11 51 16 66 6 14 10 27 9 29 -1 2
10 60 15 82 1 3 5 27 9 53 7 38 15 53 43 74 40 31 130 45 144 22 11 -18 11
-83 -1 -134 -5 -22 -11 -52 -14 -67 -2 -15 -20 -98 -40 -185 -67 -299 -76
-423 -37 -507 35 -73 71 -102 154 -121 140 -32 369 26 559 141 65 40 67 45 36
124 -29 75 -24 73 -114 52 -57 -14 -81 -16 -87 -8 -9 13 -7 117 4 166 4 19 10
46 12 60 5 27 22 95 37 150 54 196 81 412 61 486 -18 68 -78 140 -141 171 -48
24 -67 28 -145 27 -130 0 -253 -44 -399 -143 l-60 -40 -16 37 c-58 126 -199
176 -369 131z"/>
<path d="M16510 10264 c-188 -50 -354 -233 -440 -484 -68 -200 -77 -454 -22
-628 20 -63 75 -144 123 -182 96 -75 227 -94 367 -51 72 22 114 42 223 107 31
19 59 34 62 34 3 0 8 -11 11 -25 10 -38 66 -96 116 -118 124 -56 366 3 582
141 l56 36 -20 56 c-11 30 -22 62 -25 70 -4 8 -5 19 -4 24 1 5 -5 6 -14 2 -9
-3 -47 -13 -86 -23 -91 -22 -94 -17 -90 122 5 154 73 547 127 733 14 46 23 87
20 89 -2 3 -44 18 -93 34 -112 38 -265 69 -336 69 -53 0 -54 -1 -72 -40 l-18
-39 -47 24 c-118 60 -297 81 -420 49z m369 -245 c17 -6 31 -15 31 -21 0 -5 -9
-44 -19 -86 -49 -194 -87 -453 -90 -603 -1 -42 -4 -47 -40 -67 -49 -28 -114
-29 -140 -3 -71 71 -29 539 63 695 52 88 111 114 195 85z"/>
<path d="M18576 10250 c-62 -30 -93 -54 -163 -122 -29 -28 -53 -49 -54 -47 0
2 -3 18 -5 34 -7 49 -37 135 -49 136 -75 8 -385 -10 -480 -27 -108 -20 -125
-27 -125 -52 0 -13 16 -42 35 -65 69 -81 81 -141 55 -287 -6 -30 -12 -68 -15
-85 -3 -16 -10 -50 -15 -75 -17 -79 -65 -338 -76 -405 -2 -16 -10 -61 -16
-100 -11 -75 -13 -192 -3 -225 6 -18 14 -19 143 -15 193 5 257 11 367 36 l50
11 0 97 c1 92 8 192 20 256 4 17 17 91 31 165 13 74 26 142 29 150 2 8 6 31 9
50 5 32 13 72 21 110 2 8 4 23 4 32 1 18 77 68 104 68 9 0 35 -30 58 -66 41
-63 44 -65 78 -60 89 13 176 60 254 137 64 64 66 72 43 181 -16 73 -33 110
-68 149 -51 56 -143 64 -232 19z"/>
<path d="M5888 7952 c-14 -3 -28 -49 -43 -142 -3 -19 -8 -42 -10 -50 -2 -8 -6
-28 -9 -44 -3 -16 -10 -52 -15 -80 -6 -28 -12 -62 -15 -76 -2 -14 -14 -74 -25
-135 -12 -60 -24 -126 -27 -145 -3 -19 -14 -79 -25 -133 -10 -53 -21 -110 -23
-125 -3 -15 -19 -106 -36 -202 -37 -211 -51 -289 -55 -315 -1 -11 -12 -76 -23
-145 -22 -127 -46 -283 -57 -355 -3 -23 -7 -50 -9 -61 -2 -12 -7 -45 -11 -75
-4 -30 -8 -56 -10 -59 -1 -3 -6 -30 -9 -61 -4 -31 -8 -65 -10 -75 -2 -11 -7
-41 -10 -69 -4 -27 -11 -78 -17 -113 -5 -35 -12 -87 -15 -116 -2 -30 -7 -64
-9 -76 -2 -12 -7 -48 -10 -79 -3 -31 -8 -67 -10 -81 -3 -14 -7 -52 -10 -85 -3
-33 -8 -71 -10 -85 -3 -14 -7 -54 -10 -90 -3 -36 -8 -81 -10 -100 -10 -86 -15
-140 -20 -205 -2 -38 -7 -101 -10 -140 -13 -152 -25 -375 -29 -564 l-3 -114
516 6 c284 4 548 8 586 11 39 2 124 7 190 11 66 4 136 8 155 10 19 2 78 6 130
10 52 3 106 8 120 10 14 2 60 6 102 10 42 3 87 8 98 10 12 2 51 7 88 10 37 3
78 8 92 10 14 2 57 8 95 14 39 6 87 13 108 16 114 16 369 63 462 86 231 56
368 97 535 161 58 22 109 44 114 49 6 5 18 9 27 9 37 0 40 20 45 357 2 180 6
362 9 403 6 116 16 280 20 330 2 25 7 90 10 145 4 55 9 108 11 118 1 9 6 56 9
105 4 48 9 95 10 104 2 9 6 52 10 95 3 43 8 85 10 93 2 8 7 44 10 80 6 59 47
393 59 480 3 19 10 71 16 115 13 98 18 134 26 183 9 63 12 85 20 137 3 28 8
59 10 70 8 38 13 70 19 120 3 28 8 57 10 65 2 8 7 33 10 55 14 95 17 116 35
220 11 61 22 130 25 155 4 24 8 47 10 50 2 3 6 30 10 60 4 30 8 57 10 60 4 7
18 109 19 140 l1 24 -1621 1 c-891 0 -1627 -1 -1636 -3z"/>
</g>
</svg>
